<svg width="163" height="163" viewBox="0 0 163 163" fill="none" xmlns="http://www.w3.org/2000/svg">
<circle cx="81.5" cy="81.5" r="81.5" fill="white"/>
<mask id="path-2-inside-1_250_584" fill="white">
<path d="M27.9069 85.9155H135.646L132.698 84.5004C120.963 78.8679 108.242 75.5804 95.2479 74.8224L81.7762 74.0366C81.7762 74.0366 65.6816 73.9392 56.3609 75.9704C42.5295 78.9846 29.0951 85.5194 27.9069 85.9155Z"/>
</mask>
<path d="M135.646 85.9155V330.915L241.665 -134.958L135.646 85.9155ZM27.9069 85.9155L-49.569 -146.512L27.9069 330.915V85.9155ZM56.3609 75.9704L108.528 315.352H108.528L56.3609 75.9704ZM81.7762 74.0366L96.0436 -170.548L89.6567 -170.92L83.259 -170.959L81.7762 74.0366ZM95.2479 74.8224L80.9805 319.407L95.2479 74.8224ZM132.698 84.5004L26.6784 305.374L26.6785 305.374L132.698 84.5004ZM135.646 -159.085H27.9069V330.915H135.646V-159.085ZM105.383 318.343C107.244 317.723 108.865 317.157 110.185 316.687C111.516 316.213 112.693 315.78 113.681 315.411C115.617 314.688 117.231 314.058 118.387 313.599C119.573 313.129 120.586 312.717 121.359 312.398C122.145 312.075 122.826 311.79 123.368 311.562C124.419 311.119 125.286 310.746 125.824 310.514C126.387 310.27 126.865 310.061 127.176 309.925C127.493 309.786 127.78 309.66 127.956 309.583C128.227 309.463 128.217 309.468 128.403 309.386C128.624 309.289 128.704 309.254 128.738 309.239C128.797 309.214 128.132 309.505 127.09 309.915C126.123 310.295 124.275 310.999 121.659 311.845C120.309 312.282 118.569 312.817 116.471 313.397C114.386 313.973 111.718 314.657 108.528 315.352L4.19423 -163.411C-20.6796 -157.991 -41.0568 -150.49 -52.3043 -146.065C-58.583 -143.595 -63.6933 -141.408 -66.9198 -140.002C-67.6876 -139.668 -70.417 -138.47 -69.3698 -138.929C-69.3127 -138.954 -69.0672 -139.061 -68.7154 -139.213C-68.3887 -139.355 -67.7118 -139.647 -66.8277 -140.019C-66.0399 -140.351 -64.3974 -141.038 -62.2792 -141.878C-60.7648 -142.479 -55.9214 -144.394 -49.569 -146.512L105.383 318.343ZM108.528 315.352C97.7867 317.693 90.0635 318.457 88.1754 318.642C85.3767 318.916 83.677 318.99 83.3918 319.002C82.9287 319.023 82.6647 319.027 82.4629 319.03C82.3187 319.032 82.0957 319.034 81.7634 319.035C81.5945 319.036 81.3913 319.036 81.1496 319.036C81.0285 319.035 80.8971 319.035 80.7548 319.034C80.6836 319.034 80.6096 319.034 80.5328 319.033C80.4944 319.033 80.4552 319.033 80.4154 319.033C80.3954 319.033 80.3753 319.033 80.355 319.032C80.3448 319.032 80.3294 319.032 80.3244 319.032C80.3089 319.032 80.2935 319.032 81.7762 74.0366C83.259 -170.959 83.2434 -170.959 83.2277 -170.959C83.2224 -170.959 83.2067 -170.959 83.196 -170.959C83.1747 -170.959 83.1531 -170.96 83.1313 -170.96C83.0875 -170.96 83.0425 -170.96 82.9963 -170.96C82.9039 -170.961 82.8067 -170.961 82.7048 -170.962C82.501 -170.962 82.2781 -170.963 82.0368 -170.964C81.5548 -170.964 80.9967 -170.964 80.3696 -170.963C79.1206 -170.959 77.5675 -170.949 75.7688 -170.924C72.2579 -170.876 67.3877 -170.769 61.7359 -170.519C54.9197 -170.217 30.7117 -169.19 4.19423 -163.411L108.528 315.352ZM67.5089 318.621L80.9805 319.407L109.515 -169.762L96.0436 -170.548L67.5089 318.621ZM26.6785 305.374L29.6265 306.789L241.665 -134.958L238.717 -136.373L26.6785 305.374ZM80.9805 319.407C62.1391 318.308 43.6934 313.541 26.6784 305.374L238.717 -136.373C198.233 -155.805 154.345 -167.147 109.515 -169.762L80.9805 319.407Z" fill="#B292FF" mask="url(#path-2-inside-1_250_584)"/>
<path d="M104.791 37.0179L104.621 37.0737L104.791 37.0179Z" stroke="#A37BFF" stroke-width="102"/>
<ellipse cx="58.8472" cy="108.844" rx="16.5752" ry="15.4702" fill="#A37BFF"/>
<ellipse cx="104.153" cy="108.844" rx="16.5752" ry="15.4702" fill="#A37BFF"/>
<path d="M73.2123 103.871C79.9012 101.765 83.6511 101.452 90.34 103.871V112.711C83.8507 109.826 80.0923 109.898 73.2123 112.711V103.871Z" fill="#A37BFF"/>
<ellipse cx="59.1234" cy="108.844" rx="12.4314" ry="11.6026" fill="white"/>
<ellipse cx="104.429" cy="108.844" rx="12.4314" ry="11.6026" fill="white"/>
</svg>
